<svg width="36" height="36" viewBox="0 0 36 36" fill="none" xmlns="http://www.w3.org/2000/svg">
<path fill-rule="evenodd" clip-rule="evenodd" d="M0 18.1065C0 27.9411 8.05887 36 18.1065 36C27.9411 36 36 27.9411 36 18.1065C36 8.05887 27.9411 0 18.1065 0C8.05887 0 0 8.05887 0 18.1065ZM33.7263 18.1065C33.7263 26.6854 26.6854 33.7263 18.1065 33.7263C9.34353 33.7263 2.27368 26.714 2.27368 18.1065C2.27368 9.3146 9.3146 2.27368 18.1065 2.27368C26.714 2.27368 33.7263 9.34353 33.7263 18.1065Z" fill="white"/>
<ellipse cx="18" cy="11.5" rx="14" ry="8.5" fill="white"/>
<ellipse cx="18" cy="26" rx="14" ry="9" fill="white"/>
</svg>
