<svg width="20" height="19" viewBox="0 0 20 19" fill="none" xmlns="http://www.w3.org/2000/svg">
<mask id="mask0" mask-type="alpha" maskUnits="userSpaceOnUse" x="0" y="0" width="20" height="19">
<path fill-rule="evenodd" clip-rule="evenodd" d="M3.09448 0.0263062H17.8387C18.9972 0.0263062 19.945 0.974148 19.945 2.13262V16.8768C19.945 18.0353 18.9972 18.9831 17.8387 18.9831H3.09448C1.92547 18.9831 0.988159 18.0353 0.988159 16.8768V12.6642H3.09448V16.8768H17.8387V2.13262H3.09448V6.34525H0.988159V2.13262C0.988159 0.974148 1.92547 0.0263062 3.09448 0.0263062ZM9.94 14.7705L8.45505 13.2856L11.1722 10.5579H0.988159V8.45157H11.1722L8.45505 5.72389L9.94 4.23894L15.2058 9.50473L9.94 14.7705Z" fill="white"/>
</mask>
<g mask="url(#mask0)">
<rect x="-1.37854" y="-2.4953" width="24" height="24" fill="white"/>
</g>
</svg>
