<svg width="20" height="16" viewBox="0 0 20 16" fill="none" xmlns="http://www.w3.org/2000/svg">
<path fill-rule="evenodd" clip-rule="evenodd" d="M12 0C11.54 0 11.17 0.31 11.05 0.73L7.05 14.73C7.04473 14.7537 7.03876 14.7767 7.03284 14.7996L7.03284 14.7996C7.01627 14.8636 7 14.9264 7 15C7 15.55 7.45 16 8 16C8.46 16 8.83 15.69 8.95 15.27L12.95 1.27C12.9553 1.24628 12.9612 1.22326 12.9672 1.20038C12.9837 1.13644 13 1.07365 13 1C13 0.45 12.55 0 12 0ZM6 4C6 3.45 5.55 3 5 3C4.72 3 4.47 3.11 4.29 3.29L0.29 7.29C0.11 7.47 0 7.72 0 8C0 8.28 0.11 8.53 0.29 8.71L4.29 12.71C4.47 12.89 4.72 13 5 13C5.55 13 6 12.55 6 12C6 11.72 5.89 11.47 5.71 11.29L2.41 8L5.7 4.71C5.89 4.53 6 4.28 6 4ZM15.71 3.29L19.71 7.29C19.89 7.47 20 7.72 20 8C20 8.28 19.89 8.53 19.71 8.71L15.71 12.71C15.53 12.89 15.28 13 15 13C14.45 13 14 12.55 14 12C14 11.72 14.11 11.47 14.3 11.29L17.59 8L14.29 4.71C14.11 4.53 14 4.28 14 4C14 3.45 14.45 3 15 3C15.28 3 15.53 3.11 15.71 3.29Z" fill="black"/>
<mask id="mask0" mask-type="alpha" maskUnits="userSpaceOnUse" x="0" y="0" width="20" height="16">
<path fill-rule="evenodd" clip-rule="evenodd" d="M12 0C11.54 0 11.17 0.31 11.05 0.73L7.05 14.73C7.04473 14.7537 7.03876 14.7767 7.03284 14.7996L7.03284 14.7996C7.01627 14.8636 7 14.9264 7 15C7 15.55 7.45 16 8 16C8.46 16 8.83 15.69 8.95 15.27L12.95 1.27C12.9553 1.24628 12.9612 1.22326 12.9672 1.20038C12.9837 1.13644 13 1.07365 13 1C13 0.45 12.55 0 12 0ZM6 4C6 3.45 5.55 3 5 3C4.72 3 4.47 3.11 4.29 3.29L0.29 7.29C0.11 7.47 0 7.72 0 8C0 8.28 0.11 8.53 0.29 8.71L4.29 12.71C4.47 12.89 4.72 13 5 13C5.55 13 6 12.55 6 12C6 11.72 5.89 11.47 5.71 11.29L2.41 8L5.7 4.71C5.89 4.53 6 4.28 6 4ZM15.71 3.29L19.71 7.29C19.89 7.47 20 7.72 20 8C20 8.28 19.89 8.53 19.71 8.71L15.71 12.71C15.53 12.89 15.28 13 15 13C14.45 13 14 12.55 14 12C14 11.72 14.11 11.47 14.3 11.29L17.59 8L14.29 4.71C14.11 4.53 14 4.28 14 4C14 3.45 14.45 3 15 3C15.28 3 15.53 3.11 15.71 3.29Z" fill="white"/>
</mask>
<g mask="url(#mask0)">
<rect x="-2" y="-4" width="24" height="24" fill="#47B881"/>
</g>
</svg>
