<svg width="21" height="16" viewBox="0 0 21 16" fill="none" xmlns="http://www.w3.org/2000/svg">
<path fill-rule="evenodd" clip-rule="evenodd" d="M12.5151 12.3598C12.1652 12.2166 11.8255 12.0777 11.5189 11.94C10.228 11.3731 10.2152 10.9963 10.1998 10.5443C10.1976 10.4781 10.1953 10.4103 10.1889 10.34C10.1789 10.27 10.1789 10.19 10.1789 10.11V10.11C10.6889 9.66 11.0989 9.04 11.3689 8.33C11.3689 8.33 11.3789 8.29 11.3889 8.28C11.4489 8.13 11.4989 7.96 11.5389 7.8C11.8789 7.73 12.0789 7.36 12.1489 7.02C12.2289 6.88 12.3789 6.54 12.3489 6.15C12.2989 5.65 12.0989 5.42 11.8789 5.33V5.24C11.8789 4.61 11.8189 3.69 11.7089 3.09C11.6889 2.92 11.6489 2.76 11.5989 2.59C11.3789 1.86 10.9289 1.19 10.3089 0.73C9.67888 0.25 8.78888 0 7.99888 0C7.20888 0 6.31888 0.25 5.69888 0.73C5.08888 1.19 4.62888 1.85 4.40888 2.59C4.35888 2.75 4.31888 2.92 4.29888 3.09C4.17888 3.69 4.12888 4.6 4.12888 5.24V5.32C3.89888 5.41 3.68888 5.64 3.63888 6.15C3.59888 6.54 3.75888 6.88 3.83888 7.02C3.91888 7.37 4.11888 7.74 4.45888 7.8C4.49888 7.97 4.54888 8.14 4.61888 8.29C4.61888 8.295 4.62138 8.3 4.62388 8.305C4.62638 8.31 4.62888 8.315 4.62888 8.32L4.63888 8.33C4.90888 9.05 5.33888 9.68 5.85888 10.13C5.85888 10.165 5.85638 10.2 5.85388 10.235C5.85138 10.27 5.84888 10.305 5.84888 10.34C5.84357 10.3974 5.84051 10.4533 5.83752 10.508C5.81235 10.9679 5.79149 11.3491 4.46888 11.93C4.18677 12.0539 3.87776 12.1796 3.55918 12.3092C2.20649 12.8596 0.681198 13.4802 0.308883 14.33C-0.151117 15.38 0.0388832 16 0.0388832 16H15.9689C15.9689 16 16.1489 15.38 15.6989 14.33C15.319 13.5069 13.843 12.9031 12.5151 12.3598ZM16.6089 13.94C16.7689 14.31 16.8789 14.67 16.9389 15V15.01H19.9789C19.9789 15.01 20.1189 14.55 19.7789 13.76C19.497 13.1493 18.4122 12.7041 17.4266 12.2997C17.1533 12.1875 16.8877 12.0785 16.6489 11.97C15.6822 11.552 15.6712 11.2704 15.658 10.9339C15.656 10.884 15.654 10.8329 15.6489 10.78C15.6389 10.73 15.6389 10.67 15.6389 10.61V10.61C16.0189 10.27 16.3289 9.8 16.5289 9.27C16.5289 9.27 16.5289 9.24 16.5389 9.23C16.5789 9.12 16.6189 8.99 16.6489 8.87C16.9089 8.81 17.0589 8.54 17.1089 8.28C17.1689 8.18 17.2789 7.92 17.2589 7.63C17.2189 7.25 17.0689 7.08 16.9089 7.01V6.94C16.9089 6.47 16.8589 5.78 16.7789 5.33C16.7689 5.2 16.7389 5.08 16.6989 4.95C16.5289 4.4 16.1889 3.9 15.7289 3.55C15.2589 3.19 14.5889 3 13.9989 3C13.5889 3 13.1389 3.09 12.7589 3.26C12.8189 3.74 12.8589 4.32 12.8789 4.85C13.1389 5.15 13.2989 5.57 13.3489 6.07C13.3889 6.55 13.2789 7 13.0989 7.37C12.9789 7.83 12.7389 8.24 12.3789 8.5L12.3189 8.65C12.3229 8.626 12.3253 8.6116 12.3274 8.60168L12.3389 8.57C12.3362 8.57546 12.3342 8.57942 12.3325 8.58353C12.3306 8.58845 12.3291 8.59357 12.3274 8.60168L12.2989 8.68C12.1489 9.09 11.9589 9.46 11.7389 9.8C11.9189 10.11 12.1389 10.38 12.3889 10.59C12.3889 10.615 12.3864 10.6425 12.3839 10.67C12.3814 10.6975 12.3789 10.725 12.3789 10.75C12.3724 10.8022 12.369 10.8533 12.3658 10.9033C12.359 11.0068 12.3526 11.1057 12.3189 11.2C12.3989 11.24 12.4989 11.28 12.5989 11.32L12.5989 11.32C12.6068 11.3279 12.9794 11.4805 13.2182 11.5782C13.2805 11.6037 13.3337 11.6255 13.3689 11.64C15.2389 12.42 16.1589 12.97 16.6089 13.94Z" fill="black"/>
<mask id="mask0" mask-type="alpha" maskUnits="userSpaceOnUse" x="0" y="0" width="21" height="16">
<path fill-rule="evenodd" clip-rule="evenodd" d="M12.5151 12.3598C12.1652 12.2166 11.8255 12.0777 11.5189 11.94C10.228 11.3731 10.2152 10.9963 10.1998 10.5443C10.1976 10.4781 10.1953 10.4103 10.1889 10.34C10.1789 10.27 10.1789 10.19 10.1789 10.11V10.11C10.6889 9.66 11.0989 9.04 11.3689 8.33C11.3689 8.33 11.3789 8.29 11.3889 8.28C11.4489 8.13 11.4989 7.96 11.5389 7.8C11.8789 7.73 12.0789 7.36 12.1489 7.02C12.2289 6.88 12.3789 6.54 12.3489 6.15C12.2989 5.65 12.0989 5.42 11.8789 5.33V5.24C11.8789 4.61 11.8189 3.69 11.7089 3.09C11.6889 2.92 11.6489 2.76 11.5989 2.59C11.3789 1.86 10.9289 1.19 10.3089 0.73C9.67888 0.25 8.78888 0 7.99888 0C7.20888 0 6.31888 0.25 5.69888 0.73C5.08888 1.19 4.62888 1.85 4.40888 2.59C4.35888 2.75 4.31888 2.92 4.29888 3.09C4.17888 3.69 4.12888 4.6 4.12888 5.24V5.32C3.89888 5.41 3.68888 5.64 3.63888 6.15C3.59888 6.54 3.75888 6.88 3.83888 7.02C3.91888 7.37 4.11888 7.74 4.45888 7.8C4.49888 7.97 4.54888 8.14 4.61888 8.29C4.61888 8.295 4.62138 8.3 4.62388 8.305C4.62638 8.31 4.62888 8.315 4.62888 8.32L4.63888 8.33C4.90888 9.05 5.33888 9.68 5.85888 10.13C5.85888 10.165 5.85638 10.2 5.85388 10.235C5.85138 10.27 5.84888 10.305 5.84888 10.34C5.84357 10.3974 5.84051 10.4533 5.83752 10.508C5.81235 10.9679 5.79149 11.3491 4.46888 11.93C4.18677 12.0539 3.87776 12.1796 3.55918 12.3092C2.20649 12.8596 0.681198 13.4802 0.308883 14.33C-0.151117 15.38 0.0388832 16 0.0388832 16H15.9689C15.9689 16 16.1489 15.38 15.6989 14.33C15.319 13.5069 13.843 12.9031 12.5151 12.3598ZM16.6089 13.94C16.7689 14.31 16.8789 14.67 16.9389 15V15.01H19.9789C19.9789 15.01 20.1189 14.55 19.7789 13.76C19.497 13.1493 18.4122 12.7041 17.4266 12.2997C17.1533 12.1875 16.8877 12.0785 16.6489 11.97C15.6822 11.552 15.6712 11.2704 15.658 10.9339C15.656 10.884 15.654 10.8329 15.6489 10.78C15.6389 10.73 15.6389 10.67 15.6389 10.61V10.61C16.0189 10.27 16.3289 9.8 16.5289 9.27C16.5289 9.27 16.5289 9.24 16.5389 9.23C16.5789 9.12 16.6189 8.99 16.6489 8.87C16.9089 8.81 17.0589 8.54 17.1089 8.28C17.1689 8.18 17.2789 7.92 17.2589 7.63C17.2189 7.25 17.0689 7.08 16.9089 7.01V6.94C16.9089 6.47 16.8589 5.78 16.7789 5.33C16.7689 5.2 16.7389 5.08 16.6989 4.95C16.5289 4.4 16.1889 3.9 15.7289 3.55C15.2589 3.19 14.5889 3 13.9989 3C13.5889 3 13.1389 3.09 12.7589 3.26C12.8189 3.74 12.8589 4.32 12.8789 4.85C13.1389 5.15 13.2989 5.57 13.3489 6.07C13.3889 6.55 13.2789 7 13.0989 7.37C12.9789 7.83 12.7389 8.24 12.3789 8.5L12.3189 8.65C12.3229 8.626 12.3253 8.6116 12.3274 8.60168L12.3389 8.57C12.3362 8.57546 12.3342 8.57942 12.3325 8.58353C12.3306 8.58845 12.3291 8.59357 12.3274 8.60168L12.2989 8.68C12.1489 9.09 11.9589 9.46 11.7389 9.8C11.9189 10.11 12.1389 10.38 12.3889 10.59C12.3889 10.615 12.3864 10.6425 12.3839 10.67C12.3814 10.6975 12.3789 10.725 12.3789 10.75C12.3724 10.8022 12.369 10.8533 12.3658 10.9033C12.359 11.0068 12.3526 11.1057 12.3189 11.2C12.3989 11.24 12.4989 11.28 12.5989 11.32L12.5989 11.32C12.6068 11.3279 12.9794 11.4805 13.2182 11.5782C13.2805 11.6037 13.3337 11.6255 13.3689 11.64C15.2389 12.42 16.1589 12.97 16.6089 13.94Z" fill="white"/>
</mask>
<g mask="url(#mask0)">
<rect x="-2" y="-4" width="24" height="24" fill="#EC4C47"/>
</g>
</svg>
